<svg width="25" height="24" viewBox="0 0 25 24" fill="none" xmlns="http://www.w3.org/2000/svg">
<path fill-rule="evenodd" clip-rule="evenodd" d="M6.74854 5.5C6.74854 3.70507 8.20361 2.25 9.99854 2.25C11.0037 2.25 11.9023 2.70637 12.4985 3.42322C13.0947 2.70637 13.9933 2.25 14.9985 2.25C16.7934 2.25 18.2485 3.70507 18.2485 5.5C18.2485 6.25426 17.9916 6.94852 17.5604 7.5H18.4985C19.8792 7.5 20.9985 8.61929 20.9985 10V11.25C20.9985 11.6642 20.6627 12 20.2485 12H13.5485C13.3828 12 13.2485 11.8657 13.2485 11.7V8.23909C12.9656 8.05794 12.7125 7.83415 12.4985 7.57678C12.2845 7.83415 12.0314 8.05794 11.7485 8.23909V11.7C11.7485 11.8657 11.6142 12 11.4485 12H4.74854C4.33433 12 3.99854 11.6642 3.99854 11.25V10C3.99854 8.61929 5.11783 7.5 6.49854 7.5H7.43661C7.00548 6.94852 6.74854 6.25426 6.74854 5.5ZM11.7485 5.5C11.7485 4.5335 10.965 3.75 9.99854 3.75C9.03204 3.75 8.24854 4.5335 8.24854 5.5C8.24854 6.4665 9.03204 7.25 9.99854 7.25C10.965 7.25 11.7485 6.4665 11.7485 5.5ZM13.2485 5.5C13.2485 6.4665 14.032 7.25 14.9985 7.25C15.965 7.25 16.7485 6.4665 16.7485 5.5C16.7485 4.5335 15.965 3.75 14.9985 3.75C14.032 3.75 13.2485 4.5335 13.2485 5.5Z" fill="white"/>
<path d="M11.7485 13.65C11.7485 13.4843 11.6142 13.35 11.4485 13.35H6.14754C5.74189 13.35 5.39525 13.6423 5.32674 14.0421C5.10469 15.3379 5.10469 16.6621 5.32674 17.9579L5.55105 19.2669C5.70209 20.1483 6.41794 20.8235 7.30665 20.9229L8.37178 21.0419C9.39268 21.156 10.4171 21.2276 11.4425 21.2568C11.6105 21.2616 11.7485 21.1262 11.7485 20.9581V13.65Z" fill="white"/>
<path d="M13.5545 21.2568C13.3865 21.2616 13.2485 21.1262 13.2485 20.9581V13.65C13.2485 13.4843 13.3828 13.35 13.5485 13.35H18.8495C19.2551 13.35 19.6018 13.6423 19.6703 14.0421C19.8923 15.3379 19.8923 16.6621 19.6703 17.9579L19.446 19.2669C19.2949 20.1483 18.5791 20.8235 17.6904 20.9229L16.6253 21.0419C15.6043 21.156 14.5799 21.2276 13.5545 21.2568Z" fill="white"/>
</svg>
