<svg width="38" height="26" viewBox="0 0 38 26" fill="none" xmlns="http://www.w3.org/2000/svg">
<path d="M37.5 15.1978L37.4883 18.7603L26.3226 25.2485L26.3344 21.686L37.5 15.1978Z" fill="#5EAF5F"/>
<path d="M26.3344 21.6859L26.3227 25.2484L0 10.0508L0.0117187 6.48828L26.3344 21.6859Z" fill="#7BC578"/>
<path d="M37.5 15.1977L26.3344 21.6852L0.0117188 6.48828L11.1773 0L37.5 15.1977Z" fill="#98D095"/>
<path d="M27.9563 14.5531L27.6516 14.7297C27.9211 14.9719 27.9227 15.2656 27.6235 15.4391L27.2328 15.2141C27.368 15.1352 27.3016 14.9555 27.0899 14.8328C26.8727 14.7078 26.5633 14.6703 26.4274 14.7492C26.2914 14.8273 26.3586 15.007 26.575 15.132C27.0125 15.3852 27.0758 15.757 26.7203 15.9641C26.4211 16.1383 25.9141 16.1375 25.5 15.9797L25.1961 16.157L24.8055 15.9313L25.1102 15.7547C24.8367 15.5156 24.8344 15.2219 25.1336 15.0477L25.5242 15.2742C25.3891 15.3523 25.4602 15.5289 25.6766 15.6539C25.8883 15.7766 26.1938 15.8172 26.3297 15.7383C26.4703 15.657 26.3985 15.4805 26.1867 15.3578C25.7492 15.1047 25.6813 14.7297 26.0367 14.5234C26.336 14.3492 26.843 14.3492 27.261 14.5039L27.5656 14.3273L27.9563 14.5531ZM12.707 5.74922L12.4024 5.92578C12.6711 6.16797 12.6781 6.46406 12.3789 6.6375L11.9828 6.40938C12.1188 6.33125 12.057 6.15391 11.8399 6.02891C11.6235 5.90391 11.3133 5.86563 11.1781 5.94453C11.0422 6.02266 11.1086 6.20235 11.3258 6.32735C11.7633 6.58047 11.8313 6.95547 11.4758 7.1625C11.1766 7.33672 10.6649 7.33359 10.2508 7.17578L9.94689 7.35235L9.55626 7.12735L9.86017 6.95078C9.58673 6.71094 9.58517 6.41797 9.88439 6.24375L10.275 6.46953C10.1399 6.54766 10.211 6.725 10.4274 6.85C10.6438 6.975 10.9445 7.01328 11.0805 6.93438C11.2211 6.85234 11.1539 6.67891 10.9375 6.55391C10.5 6.30078 10.4313 5.92578 10.7875 5.71875C11.0867 5.54531 11.593 5.54531 12.0117 5.7L12.3164 5.52344L12.707 5.74922ZM12.2641 2.11719C12.8617 2.4625 12.8649 3.01719 12.2711 3.3625C11.6813 3.70469 10.7195 3.70781 10.1219 3.3625C9.52814 3.01953 9.52501 2.46016 10.1141 2.11719C10.7078 1.77188 11.6703 1.775 12.2641 2.11719ZM22.6461 9.14141L21.893 9.57891C22.5625 10.1711 22.5672 10.8945 21.8227 11.3266L20.8578 10.7695C21.1945 10.5742 21.0281 10.1367 20.4961 9.82891C19.9688 9.52422 19.2078 9.42656 18.8711 9.62266C18.5352 9.81797 18.7063 10.2586 19.2336 10.5625C20.3164 11.1875 20.4805 12.107 19.6008 12.6172C18.8625 13.0469 17.6094 13.05 16.5891 12.6609L15.8313 13.1016L14.8664 12.5445L15.6242 12.1039C14.9492 11.5141 14.9453 10.7859 15.6844 10.3563L16.6492 10.9133C16.3133 11.1086 16.4844 11.5492 17.0117 11.8539C17.543 12.1609 18.2992 12.2563 18.6367 12.0609C18.9727 11.8648 18.8063 11.4273 18.2742 11.1203C17.1961 10.4977 17.032 9.57344 17.9063 9.06563C18.65 8.63281 19.9031 8.63594 20.9281 9.02188L21.6813 8.58438L22.6461 9.14141ZM5.8133 5.86563C6.41173 6.21094 6.41486 6.76563 5.82111 7.11094C5.23126 7.45313 4.27423 7.45313 3.6758 7.10781C3.08283 6.76563 3.07423 6.20859 3.66408 5.86563C4.25783 5.52031 5.22033 5.52344 5.8133 5.86563ZM33.836 14.5719C34.4344 14.9172 34.4375 15.4719 33.8438 15.8172C33.2539 16.1594 32.2914 16.1625 31.6938 15.8172C31.1 15.475 31.1024 14.9172 31.6914 14.575C32.2852 14.2297 33.243 14.2297 33.836 14.5719ZM27.386 18.3203C27.9836 18.6656 27.9875 19.2203 27.3938 19.5656C26.8039 19.9078 25.8469 19.9078 25.2485 19.5625C24.6547 19.2203 24.6524 18.6656 25.2414 18.3234C25.8352 17.9781 26.793 17.9781 27.386 18.3203Z" fill="#46A046"/>
<path d="M11.1875 1.01953L35.7398 15.1945L26.3289 20.6633L16.2164 14.825L1.77655 6.48984L11.1875 1.01953ZM14.0781 13.5586C16.6773 15.0586 20.8867 15.0562 23.4641 13.5586C26.0414 12.0609 26.0328 9.62188 23.4336 8.12109C20.8398 6.62422 16.625 6.62422 14.0484 8.12109C11.4719 9.61797 11.4836 12.0609 14.0781 13.5586ZM6.1453 7.29297L11.4703 10.3453C11.643 9.42656 12.3328 8.53516 13.5445 7.83125C14.7562 7.12734 16.2883 6.72734 17.8781 6.62109L12.5726 3.55859C13.3578 3.10156 13.3539 2.37891 12.582 1.93281C11.8148 1.48906 10.5617 1.48672 9.79452 1.93281C9.02733 2.37812 9.04061 3.10156 9.8078 3.54453L6.15624 5.69453C5.36483 5.2375 4.11171 5.23516 3.34921 5.67891C2.57811 6.12656 2.59139 6.85 3.35858 7.29297C4.13124 7.73828 5.37343 7.74141 6.1453 7.29297ZM27.7047 18.1359L31.3625 15.9883C32.1531 16.4453 33.3969 16.4477 34.1641 16.0023C34.9312 15.5562 34.9273 14.8328 34.1555 14.3875C33.3875 13.9445 32.1398 13.9445 31.3719 14.3898L26.0476 11.3375C25.8648 12.2563 25.1805 13.1453 23.9687 13.8492C22.757 14.5531 21.2203 14.9555 19.6398 15.0617L24.9453 18.1242C24.1547 18.5844 24.164 19.3039 24.9312 19.7477C25.7031 20.193 26.9469 20.1961 27.7187 19.7477C28.4812 19.3047 28.4766 18.5812 27.7047 18.1359ZM14.5898 3.50938L13.893 3.91406L16.7367 5.55625L17.4336 5.15078L14.5898 3.50938ZM28.5867 11.5906L27.8898 11.9953L30.7289 13.6344L31.4258 13.2297L28.5867 11.5906ZM8.93046 10.093L9.62186 9.69063L6.77811 8.04844L6.08593 8.45078L8.93046 10.093ZM22.9226 18.1711L23.6148 17.7688L20.7758 16.1297L20.0836 16.532L22.9226 18.1711Z" fill="#46A046"/>
<path d="M27.1422 9.21621L15.9766 15.7061L15.4625 15.4092L26.6281 8.9209L27.1422 9.21621Z" fill="#86AEDC"/>
<path d="M30.1406 10.9485L18.9766 17.4368L15.9774 15.7056L27.143 9.21729L30.1406 10.9485Z" fill="#E3E6F0"/>
<path d="M30.6516 11.2436L19.4867 17.7318L18.975 17.4365L30.1406 10.9482L30.6516 11.2436Z" fill="#86AEDC"/>
<path d="M15.9766 15.7053L15.9531 19.2686L15.4391 18.9717L15.4625 15.4092L15.9766 15.7053Z" fill="#678CC8"/>
<path d="M18.9727 17.4353L18.9492 20.9985L15.9531 19.2688L15.9766 15.7056L18.9727 17.4353Z" fill="#D4DBE9"/>
<path d="M19.4867 17.7321L19.4633 21.2954L18.9492 20.9985L18.9727 17.436L19.4867 17.7321Z" fill="#678CC8"/>
</svg>
