<svg width="41" height="34" viewBox="0 0 41 34" fill="none" xmlns="http://www.w3.org/2000/svg">
<path d="M40.875 23.6455L40.8633 27.208L29.6976 33.6963L29.7094 30.1338L40.875 23.6455Z" fill="#5EAF5F"/>
<path d="M29.7094 30.1337L29.6977 33.6962L3.375 18.4985L3.38672 14.936L29.7094 30.1337Z" fill="#7BC578"/>
<path d="M40.875 23.6454L29.7094 30.1329L3.38672 14.936L14.5523 8.44775L40.875 23.6454Z" fill="#98D095"/>
<path d="M31.3313 23.0009L31.0266 23.1774C31.2961 23.4196 31.2977 23.7134 30.9985 23.8868L30.6078 23.6618C30.743 23.5829 30.6766 23.4032 30.4649 23.2806C30.2477 23.1556 29.9383 23.1181 29.8024 23.197C29.6664 23.2751 29.7336 23.4548 29.95 23.5798C30.3875 23.8329 30.4508 24.2048 30.0953 24.4118C29.7961 24.586 29.2891 24.5853 28.875 24.4274L28.5711 24.6048L28.1805 24.379L28.4852 24.2024C28.2117 23.9634 28.2094 23.6696 28.5086 23.4954L28.8992 23.722C28.7641 23.8001 28.8352 23.9767 29.0516 24.1017C29.2633 24.2243 29.5688 24.2649 29.7047 24.186C29.8453 24.1048 29.7735 23.9282 29.5617 23.8056C29.1242 23.5524 29.0563 23.1774 29.4117 22.9712C29.711 22.797 30.218 22.797 30.636 22.9517L30.9406 22.7751L31.3313 23.0009ZM16.082 14.197L15.7774 14.3735C16.0461 14.6157 16.0531 14.9118 15.7539 15.0853L15.3578 14.8571C15.4938 14.779 15.432 14.6017 15.2149 14.4767C14.9985 14.3517 14.6883 14.3134 14.5531 14.3923C14.4172 14.4704 14.4836 14.6501 14.7008 14.7751C15.1383 15.0282 15.2063 15.4032 14.8508 15.6103C14.5516 15.7845 14.0399 15.7813 13.6258 15.6235L13.3219 15.8001L12.9313 15.5751L13.2352 15.3985C12.9617 15.1587 12.9602 14.8657 13.2594 14.6915L13.65 14.9173C13.5149 14.9954 13.586 15.1728 13.8024 15.2978C14.0188 15.4228 14.3195 15.461 14.4555 15.3821C14.5961 15.3001 14.5289 15.1267 14.3125 15.0017C13.875 14.7485 13.8063 14.3735 14.1625 14.1665C14.4617 13.9931 14.968 13.9931 15.3867 14.1478L15.6914 13.9712L16.082 14.197ZM15.6391 10.5649C16.2367 10.9103 16.2399 11.4649 15.6461 11.8103C15.0563 12.1524 14.0945 12.1556 13.4969 11.8103C12.9031 11.4673 12.9 10.9079 13.4891 10.5649C14.0828 10.2196 15.0453 10.2228 15.6391 10.5649ZM26.0211 17.5892L25.268 18.0267C25.9375 18.6188 25.9422 19.3423 25.1977 19.7743L24.2328 19.2173C24.5695 19.022 24.4031 18.5845 23.8711 18.2767C23.3438 17.972 22.5828 17.8743 22.2461 18.0704C21.9102 18.2657 22.0813 18.7063 22.6086 19.0103C23.6914 19.6353 23.8555 20.5548 22.9758 21.0649C22.2375 21.4946 20.9844 21.4978 19.9641 21.1087L19.2063 21.5493L18.2414 20.9923L18.9992 20.5517C18.3242 19.9618 18.3203 19.2337 19.0594 18.804L20.0242 19.361C19.6883 19.5563 19.8594 19.997 20.3867 20.3017C20.918 20.6087 21.6742 20.704 22.0117 20.5087C22.3477 20.3126 22.1813 19.8751 21.6492 19.5681C20.5711 18.9454 20.407 18.0212 21.2813 17.5134C22.025 17.0806 23.2781 17.0837 24.3031 17.4696L25.0563 17.0321L26.0211 17.5892ZM9.1883 14.3134C9.78673 14.6587 9.78986 15.2134 9.19611 15.5587C8.60626 15.9009 7.64923 15.9009 7.0508 15.5556C6.45783 15.2134 6.44923 14.6563 7.03908 14.3134C7.63283 13.9681 8.59533 13.9712 9.1883 14.3134ZM37.211 23.0196C37.8094 23.3649 37.8125 23.9196 37.2188 24.2649C36.6289 24.6071 35.6664 24.6103 35.0688 24.2649C34.475 23.9228 34.4774 23.3649 35.0664 23.0228C35.6602 22.6774 36.618 22.6774 37.211 23.0196ZM30.761 26.7681C31.3586 27.1134 31.3625 27.6681 30.7688 28.0134C30.1789 28.3556 29.2219 28.3556 28.6235 28.0103C28.0297 27.6681 28.0274 27.1134 28.6164 26.7712C29.2102 26.4259 30.168 26.4259 30.761 26.7681Z" fill="#46A046"/>
<path d="M14.5625 9.46729L39.1148 23.6423L29.7039 29.111L19.5914 23.2728L5.15155 14.9376L14.5625 9.46729ZM17.4531 22.0063C20.0523 23.5063 24.2617 23.504 26.8391 22.0063C29.4164 20.5087 29.4078 18.0696 26.8086 16.5688C24.2148 15.072 20 15.072 17.4234 16.5688C14.8469 18.0657 14.8586 20.5087 17.4531 22.0063ZM9.5203 15.7407L14.8453 18.7931C15.018 17.8743 15.7078 16.9829 16.9195 16.279C18.1312 15.5751 19.6633 15.1751 21.2531 15.0688L15.9476 12.0063C16.7328 11.5493 16.7289 10.8267 15.957 10.3806C15.1898 9.93682 13.9367 9.93447 13.1695 10.3806C12.4023 10.8259 12.4156 11.5493 13.1828 11.9923L9.53124 14.1423C8.73983 13.6853 7.48671 13.6829 6.72421 14.1267C5.95311 14.5743 5.96639 15.2978 6.73358 15.7407C7.50624 16.186 8.74843 16.1892 9.5203 15.7407ZM31.0797 26.5837L34.7375 24.436C35.5281 24.8931 36.7719 24.8954 37.5391 24.4501C38.3062 24.004 38.3023 23.2806 37.5305 22.8353C36.7625 22.3923 35.5148 22.3923 34.7469 22.8376L29.4226 19.7853C29.2398 20.704 28.5555 21.5931 27.3437 22.297C26.132 23.0009 24.5953 23.4032 23.0148 23.5095L28.3203 26.572C27.5297 27.0321 27.539 27.7517 28.3062 28.1954C29.0781 28.6407 30.3219 28.6438 31.0937 28.1954C31.8562 27.7524 31.8516 27.029 31.0797 26.5837ZM17.9648 11.9571L17.268 12.3618L20.1117 14.004L20.8086 13.5985L17.9648 11.9571ZM31.9617 20.0384L31.2648 20.4431L34.1039 22.0821L34.8008 21.6774L31.9617 20.0384ZM12.3055 18.5407L12.9969 18.1384L10.1531 16.4962L9.46093 16.8985L12.3055 18.5407ZM26.2976 26.6188L26.9898 26.2165L24.1508 24.5774L23.4586 24.9798L26.2976 26.6188Z" fill="#46A046"/>
<path d="M30.5172 17.664L19.3516 24.1538L18.8375 23.8569L30.0031 17.3687L30.5172 17.664Z" fill="#86AEDC"/>
<path d="M33.5156 19.3963L22.3516 25.8846L19.3524 24.1533L30.518 17.665L33.5156 19.3963Z" fill="#E3E6F0"/>
<path d="M34.0266 19.6913L22.8617 26.1796L22.35 25.8843L33.5156 19.396L34.0266 19.6913Z" fill="#86AEDC"/>
<path d="M19.3516 24.153L19.3281 27.7163L18.8141 27.4194L18.8375 23.8569L19.3516 24.153Z" fill="#678CC8"/>
<path d="M22.3477 25.883L22.3242 29.4463L19.3281 27.7166L19.3516 24.1533L22.3477 25.883Z" fill="#D4DBE9"/>
<path d="M22.8617 26.1799L22.8383 29.7432L22.3242 29.4463L22.3477 25.8838L22.8617 26.1799Z" fill="#678CC8"/>
<path d="M37.75 15.9165L37.7383 19.479L26.5726 25.9673L26.5844 22.4048L37.75 15.9165Z" fill="#5EAF5F"/>
<path d="M26.5844 22.4047L26.5727 25.9672L0.25 10.7695L0.261719 7.20703L26.5844 22.4047Z" fill="#7BC578"/>
<path d="M37.75 15.9164L26.5844 22.4039L0.261719 7.20703L11.4273 0.71875L37.75 15.9164Z" fill="#98D095"/>
<path d="M28.2063 15.2719L27.9016 15.4484C28.1711 15.6906 28.1727 15.9844 27.8735 16.1578L27.4828 15.9328C27.618 15.8539 27.5516 15.6742 27.3399 15.5516C27.1227 15.4266 26.8133 15.3891 26.6774 15.468C26.5414 15.5461 26.6086 15.7258 26.825 15.8508C27.2625 16.1039 27.3258 16.4758 26.9703 16.6828C26.6711 16.857 26.1641 16.8563 25.75 16.6984L25.4461 16.8758L25.0555 16.65L25.3602 16.4734C25.0867 16.2344 25.0844 15.9406 25.3836 15.7664L25.7742 15.993C25.6391 16.0711 25.7102 16.2477 25.9266 16.3727C26.1383 16.4953 26.4438 16.5359 26.5797 16.457C26.7203 16.3758 26.6485 16.1992 26.4367 16.0766C25.9992 15.8234 25.9313 15.4484 26.2867 15.2422C26.586 15.068 27.093 15.068 27.511 15.2227L27.8156 15.0461L28.2063 15.2719ZM12.957 6.46797L12.6524 6.64453C12.9211 6.88672 12.9281 7.18281 12.6289 7.35625L12.2328 7.12813C12.3688 7.05 12.307 6.87266 12.0899 6.74766C11.8735 6.62266 11.5633 6.58438 11.4281 6.66328C11.2922 6.74141 11.3586 6.9211 11.5758 7.0461C12.0133 7.29922 12.0813 7.67422 11.7258 7.88125C11.4266 8.05547 10.9149 8.05234 10.5008 7.89453L10.1969 8.0711L9.80626 7.8461L10.1102 7.66953C9.83673 7.42969 9.83517 7.13672 10.1344 6.9625L10.525 7.18828C10.3899 7.26641 10.461 7.44375 10.6774 7.56875C10.8938 7.69375 11.1945 7.73203 11.3305 7.65313C11.4711 7.57109 11.4039 7.39766 11.1875 7.27266C10.75 7.01953 10.6813 6.64453 11.0375 6.4375C11.3367 6.26406 11.843 6.26406 12.2617 6.41875L12.5664 6.24219L12.957 6.46797ZM12.5141 2.83594C13.1117 3.18125 13.1149 3.73594 12.5211 4.08125C11.9313 4.42344 10.9695 4.42656 10.3719 4.08125C9.77814 3.73828 9.77501 3.17891 10.3641 2.83594C10.9578 2.49063 11.9203 2.49375 12.5141 2.83594ZM22.8961 9.86016L22.143 10.2977C22.8125 10.8898 22.8172 11.6133 22.0727 12.0453L21.1078 11.4883C21.4445 11.293 21.2781 10.8555 20.7461 10.5477C20.2188 10.243 19.4578 10.1453 19.1211 10.3414C18.7852 10.5367 18.9563 10.9773 19.4836 11.2813C20.5664 11.9063 20.7305 12.8258 19.8508 13.3359C19.1125 13.7656 17.8594 13.7688 16.8391 13.3797L16.0813 13.8203L15.1164 13.2633L15.8742 12.8227C15.1992 12.2328 15.1953 11.5047 15.9344 11.075L16.8992 11.632C16.5633 11.8273 16.7344 12.268 17.2617 12.5727C17.793 12.8797 18.5492 12.975 18.8867 12.7797C19.2227 12.5836 19.0563 12.1461 18.5242 11.8391C17.4461 11.2164 17.282 10.2922 18.1563 9.78438C18.9 9.35156 20.1531 9.35469 21.1781 9.74063L21.9313 9.30313L22.8961 9.86016ZM6.0633 6.58438C6.66173 6.92969 6.66486 7.48438 6.07111 7.82969C5.48126 8.17188 4.52423 8.17188 3.9258 7.82656C3.33283 7.48438 3.32423 6.92734 3.91408 6.58438C4.50783 6.23906 5.47033 6.24219 6.0633 6.58438ZM34.086 15.2906C34.6844 15.6359 34.6875 16.1906 34.0938 16.5359C33.5039 16.8781 32.5414 16.8813 31.9438 16.5359C31.35 16.1938 31.3524 15.6359 31.9414 15.2938C32.5352 14.9484 33.493 14.9484 34.086 15.2906ZM27.636 19.0391C28.2336 19.3844 28.2375 19.9391 27.6438 20.2844C27.0539 20.6266 26.0969 20.6266 25.4985 20.2812C24.9047 19.9391 24.9024 19.3844 25.4914 19.0422C26.0852 18.6969 27.043 18.6969 27.636 19.0391Z" fill="#46A046"/>
<path d="M11.4375 1.73828L35.9898 15.9133L26.5789 21.382L16.4664 15.5437L2.02655 7.20859L11.4375 1.73828ZM14.3281 14.2773C16.9273 15.7773 21.1367 15.775 23.7141 14.2773C26.2914 12.7797 26.2828 10.3406 23.6836 8.83984C21.0898 7.34297 16.875 7.34297 14.2984 8.83984C11.7219 10.3367 11.7336 12.7797 14.3281 14.2773ZM6.3953 8.01172L11.7203 11.0641C11.893 10.1453 12.5828 9.25391 13.7945 8.55C15.0062 7.84609 16.5383 7.44609 18.1281 7.33984L12.8226 4.27734C13.6078 3.82031 13.6039 3.09766 12.832 2.65156C12.0648 2.20781 10.8117 2.20547 10.0445 2.65156C9.27733 3.09687 9.29061 3.82031 10.0578 4.26328L6.40624 6.41328C5.61483 5.95625 4.36171 5.95391 3.59921 6.39766C2.82811 6.84531 2.84139 7.56875 3.60858 8.01172C4.38124 8.45703 5.62343 8.46016 6.3953 8.01172ZM27.9547 18.8547L31.6125 16.707C32.4031 17.1641 33.6469 17.1664 34.4141 16.7211C35.1812 16.275 35.1773 15.5516 34.4055 15.1062C33.6375 14.6633 32.3898 14.6633 31.6219 15.1086L26.2976 12.0563C26.1148 12.975 25.4305 13.8641 24.2187 14.568C23.007 15.2719 21.4703 15.6742 19.8898 15.7805L25.1953 18.843C24.4047 19.3031 24.414 20.0227 25.1812 20.4664C25.9531 20.9117 27.1969 20.9148 27.9687 20.4664C28.7312 20.0234 28.7266 19.3 27.9547 18.8547ZM14.8398 4.22813L14.143 4.63281L16.9867 6.275L17.6836 5.86953L14.8398 4.22813ZM28.8367 12.3094L28.1398 12.7141L30.9789 14.3531L31.6758 13.9484L28.8367 12.3094ZM9.18046 10.8117L9.87186 10.4094L7.02811 8.76719L6.33593 9.16953L9.18046 10.8117ZM23.1726 18.8898L23.8648 18.4875L21.0258 16.8484L20.3336 17.2508L23.1726 18.8898Z" fill="#46A046"/>
<path d="M27.3922 9.93496L16.2266 16.4248L15.7125 16.1279L26.8781 9.63965L27.3922 9.93496Z" fill="#86AEDC"/>
<path d="M30.3906 11.6673L19.2266 18.1556L16.2274 16.4243L27.393 9.93604L30.3906 11.6673Z" fill="#E3E6F0"/>
<path d="M30.9016 11.9623L19.7367 18.4506L19.225 18.1553L30.3906 11.667L30.9016 11.9623Z" fill="#86AEDC"/>
<path d="M16.2266 16.424L16.2031 19.9873L15.6891 19.6904L15.7125 16.1279L16.2266 16.424Z" fill="#678CC8"/>
<path d="M19.2227 18.154L19.1992 21.7173L16.2031 19.9876L16.2266 16.4243L19.2227 18.154Z" fill="#D4DBE9"/>
<path d="M19.7367 18.4509L19.7133 22.0142L19.1992 21.7173L19.2227 18.1548L19.7367 18.4509Z" fill="#678CC8"/>
</svg>
