<svg width="44" height="42" viewBox="0 0 44 42" fill="none" xmlns="http://www.w3.org/2000/svg">
<path d="M43.875 31.6455L43.8633 35.208L32.6976 41.6963L32.7094 38.1338L43.875 31.6455Z" fill="#5EAF5F"/>
<path d="M32.7094 38.1337L32.6977 41.6962L6.375 26.4985L6.38672 22.936L32.7094 38.1337Z" fill="#7BC578"/>
<path d="M43.875 31.6454L32.7094 38.1329L6.38672 22.936L17.5523 16.4478L43.875 31.6454Z" fill="#98D095"/>
<path d="M34.3313 31.0009L34.0266 31.1774C34.2961 31.4196 34.2977 31.7134 33.9985 31.8868L33.6078 31.6618C33.743 31.5829 33.6766 31.4032 33.4649 31.2806C33.2477 31.1556 32.9383 31.1181 32.8024 31.197C32.6664 31.2751 32.7336 31.4548 32.95 31.5798C33.3875 31.8329 33.4508 32.2048 33.0953 32.4118C32.7961 32.586 32.2891 32.5853 31.875 32.4274L31.5711 32.6048L31.1805 32.379L31.4852 32.2024C31.2117 31.9634 31.2094 31.6696 31.5086 31.4954L31.8992 31.722C31.7641 31.8001 31.8352 31.9767 32.0516 32.1017C32.2633 32.2243 32.5688 32.2649 32.7047 32.186C32.8453 32.1048 32.7735 31.9282 32.5617 31.8056C32.1242 31.5524 32.0563 31.1774 32.4117 30.9712C32.711 30.797 33.218 30.797 33.636 30.9517L33.9406 30.7751L34.3313 31.0009ZM19.082 22.197L18.7774 22.3735C19.0461 22.6157 19.0531 22.9118 18.7539 23.0853L18.3578 22.8571C18.4938 22.779 18.432 22.6017 18.2149 22.4767C17.9985 22.3517 17.6883 22.3134 17.5531 22.3923C17.4172 22.4704 17.4836 22.6501 17.7008 22.7751C18.1383 23.0282 18.2063 23.4032 17.8508 23.6103C17.5516 23.7845 17.0399 23.7813 16.6258 23.6235L16.3219 23.8001L15.9313 23.5751L16.2352 23.3985C15.9617 23.1587 15.9602 22.8657 16.2594 22.6915L16.65 22.9173C16.5149 22.9954 16.586 23.1728 16.8024 23.2978C17.0188 23.4228 17.3195 23.461 17.4555 23.3821C17.5961 23.3001 17.5289 23.1267 17.3125 23.0017C16.875 22.7485 16.8063 22.3735 17.1625 22.1665C17.4617 21.9931 17.968 21.9931 18.3867 22.1478L18.6914 21.9712L19.082 22.197ZM18.6391 18.5649C19.2367 18.9103 19.2399 19.4649 18.6461 19.8103C18.0563 20.1524 17.0945 20.1556 16.4969 19.8103C15.9031 19.4673 15.9 18.9079 16.4891 18.5649C17.0828 18.2196 18.0453 18.2228 18.6391 18.5649ZM29.0211 25.5892L28.268 26.0267C28.9375 26.6188 28.9422 27.3423 28.1977 27.7743L27.2328 27.2173C27.5695 27.022 27.4031 26.5845 26.8711 26.2767C26.3438 25.972 25.5828 25.8743 25.2461 26.0704C24.9102 26.2657 25.0813 26.7063 25.6086 27.0103C26.6914 27.6353 26.8555 28.5548 25.9758 29.0649C25.2375 29.4946 23.9844 29.4978 22.9641 29.1087L22.2063 29.5493L21.2414 28.9923L21.9992 28.5517C21.3242 27.9618 21.3203 27.2337 22.0594 26.804L23.0242 27.361C22.6883 27.5563 22.8594 27.997 23.3867 28.3017C23.918 28.6087 24.6742 28.704 25.0117 28.5087C25.3477 28.3126 25.1813 27.8751 24.6492 27.5681C23.5711 26.9454 23.407 26.0212 24.2813 25.5134C25.025 25.0806 26.2781 25.0837 27.3031 25.4696L28.0563 25.0321L29.0211 25.5892ZM12.1883 22.3134C12.7867 22.6587 12.7899 23.2134 12.1961 23.5587C11.6063 23.9009 10.6492 23.9009 10.0508 23.5556C9.45783 23.2134 9.44923 22.6563 10.0391 22.3134C10.6328 21.9681 11.5953 21.9712 12.1883 22.3134ZM40.211 31.0196C40.8094 31.3649 40.8125 31.9196 40.2188 32.2649C39.6289 32.6071 38.6664 32.6103 38.0688 32.2649C37.475 31.9228 37.4774 31.3649 38.0664 31.0228C38.6602 30.6774 39.618 30.6774 40.211 31.0196ZM33.761 34.7681C34.3586 35.1134 34.3625 35.6681 33.7688 36.0134C33.1789 36.3556 32.2219 36.3556 31.6235 36.0103C31.0297 35.6681 31.0274 35.1134 31.6164 34.7712C32.2102 34.4259 33.168 34.4259 33.761 34.7681Z" fill="#46A046"/>
<path d="M17.5625 17.4673L42.1148 31.6423L32.7039 37.111L22.5914 31.2728L8.15155 22.9376L17.5625 17.4673ZM20.4531 30.0063C23.0523 31.5063 27.2617 31.504 29.8391 30.0063C32.4164 28.5087 32.4078 26.0696 29.8086 24.5688C27.2148 23.072 23 23.072 20.4234 24.5688C17.8469 26.0657 17.8586 28.5087 20.4531 30.0063ZM12.5203 23.7407L17.8453 26.7931C18.018 25.8743 18.7078 24.9829 19.9195 24.279C21.1312 23.5751 22.6633 23.1751 24.2531 23.0688L18.9476 20.0063C19.7328 19.5493 19.7289 18.8267 18.957 18.3806C18.1898 17.9368 16.9367 17.9345 16.1695 18.3806C15.4023 18.8259 15.4156 19.5493 16.1828 19.9923L12.5312 22.1423C11.7398 21.6853 10.4867 21.6829 9.72421 22.1267C8.95311 22.5743 8.96639 23.2978 9.73358 23.7407C10.5062 24.186 11.7484 24.1892 12.5203 23.7407ZM34.0797 34.5837L37.7375 32.436C38.5281 32.8931 39.7719 32.8954 40.5391 32.4501C41.3062 32.004 41.3023 31.2806 40.5305 30.8353C39.7625 30.3923 38.5148 30.3923 37.7469 30.8376L32.4226 27.7853C32.2398 28.704 31.5555 29.5931 30.3437 30.297C29.132 31.0009 27.5953 31.4032 26.0148 31.5095L31.3203 34.572C30.5297 35.0321 30.539 35.7517 31.3062 36.1954C32.0781 36.6407 33.3219 36.6438 34.0937 36.1954C34.8562 35.7524 34.8516 35.029 34.0797 34.5837ZM20.9648 19.9571L20.268 20.3618L23.1117 22.004L23.8086 21.5985L20.9648 19.9571ZM34.9617 28.0384L34.2648 28.4431L37.1039 30.0821L37.8008 29.6774L34.9617 28.0384ZM15.3055 26.5407L15.9969 26.1384L13.1531 24.4962L12.4609 24.8985L15.3055 26.5407ZM29.2976 34.6188L29.9898 34.2165L27.1508 32.5774L26.4586 32.9798L29.2976 34.6188Z" fill="#46A046"/>
<path d="M33.5172 25.664L22.3516 32.1538L21.8375 31.8569L33.0031 25.3687L33.5172 25.664Z" fill="#86AEDC"/>
<path d="M36.5156 27.3963L25.3516 33.8846L22.3524 32.1533L33.518 25.665L36.5156 27.3963Z" fill="#E3E6F0"/>
<path d="M37.0266 27.6913L25.8617 34.1796L25.35 33.8843L36.5156 27.396L37.0266 27.6913Z" fill="#86AEDC"/>
<path d="M22.3516 32.153L22.3281 35.7163L21.8141 35.4194L21.8375 31.8569L22.3516 32.153Z" fill="#678CC8"/>
<path d="M25.3477 33.883L25.3242 37.4463L22.3281 35.7166L22.3516 32.1533L25.3477 33.883Z" fill="#D4DBE9"/>
<path d="M25.8617 34.1799L25.8383 37.7432L25.3242 37.4463L25.3477 33.8838L25.8617 34.1799Z" fill="#678CC8"/>
<path d="M40.75 23.9165L40.7383 27.479L29.5726 33.9673L29.5844 30.4048L40.75 23.9165Z" fill="#5EAF5F"/>
<path d="M29.5844 30.4047L29.5727 33.9672L3.25 18.7695L3.26172 15.207L29.5844 30.4047Z" fill="#7BC578"/>
<path d="M40.75 23.9164L29.5844 30.4039L3.26172 15.207L14.4273 8.71875L40.75 23.9164Z" fill="#98D095"/>
<path d="M31.2063 23.2719L30.9016 23.4484C31.1711 23.6906 31.1727 23.9844 30.8735 24.1578L30.4828 23.9328C30.618 23.8539 30.5516 23.6742 30.3399 23.5516C30.1227 23.4266 29.8133 23.3891 29.6774 23.468C29.5414 23.5461 29.6086 23.7258 29.825 23.8508C30.2625 24.1039 30.3258 24.4758 29.9703 24.6828C29.6711 24.857 29.1641 24.8563 28.75 24.6984L28.4461 24.8758L28.0555 24.65L28.3602 24.4734C28.0867 24.2344 28.0844 23.9406 28.3836 23.7664L28.7742 23.993C28.6391 24.0711 28.7102 24.2477 28.9266 24.3727C29.1383 24.4953 29.4438 24.5359 29.5797 24.457C29.7203 24.3758 29.6485 24.1992 29.4367 24.0766C28.9992 23.8234 28.9313 23.4484 29.2867 23.2422C29.586 23.068 30.093 23.068 30.511 23.2227L30.8156 23.0461L31.2063 23.2719ZM15.957 14.468L15.6524 14.6445C15.9211 14.8867 15.9281 15.1828 15.6289 15.3563L15.2328 15.1281C15.3688 15.05 15.307 14.8727 15.0899 14.7477C14.8735 14.6227 14.5633 14.5844 14.4281 14.6633C14.2922 14.7414 14.3586 14.9211 14.5758 15.0461C15.0133 15.2992 15.0813 15.6742 14.7258 15.8813C14.4266 16.0555 13.9149 16.0523 13.5008 15.8945L13.1969 16.0711L12.8063 15.8461L13.1102 15.6695C12.8367 15.4297 12.8352 15.1367 13.1344 14.9625L13.525 15.1883C13.3899 15.2664 13.461 15.4438 13.6774 15.5688C13.8938 15.6938 14.1945 15.732 14.3305 15.6531C14.4711 15.5711 14.4039 15.3977 14.1875 15.2727C13.75 15.0195 13.6813 14.6445 14.0375 14.4375C14.3367 14.2641 14.843 14.2641 15.2617 14.4188L15.5664 14.2422L15.957 14.468ZM15.5141 10.8359C16.1117 11.1813 16.1149 11.7359 15.5211 12.0813C14.9313 12.4234 13.9695 12.4266 13.3719 12.0813C12.7781 11.7383 12.775 11.1789 13.3641 10.8359C13.9578 10.4906 14.9203 10.4938 15.5141 10.8359ZM25.8961 17.8602L25.143 18.2977C25.8125 18.8898 25.8172 19.6133 25.0727 20.0453L24.1078 19.4883C24.4445 19.293 24.2781 18.8555 23.7461 18.5477C23.2188 18.243 22.4578 18.1453 22.1211 18.3414C21.7852 18.5367 21.9563 18.9773 22.4836 19.2813C23.5664 19.9063 23.7305 20.8258 22.8508 21.3359C22.1125 21.7656 20.8594 21.7688 19.8391 21.3797L19.0813 21.8203L18.1164 21.2633L18.8742 20.8227C18.1992 20.2328 18.1953 19.5047 18.9344 19.075L19.8992 19.632C19.5633 19.8273 19.7344 20.268 20.2617 20.5727C20.793 20.8797 21.5492 20.975 21.8867 20.7797C22.2227 20.5836 22.0563 20.1461 21.5242 19.8391C20.4461 19.2164 20.282 18.2922 21.1563 17.7844C21.9 17.3516 23.1531 17.3547 24.1781 17.7406L24.9313 17.3031L25.8961 17.8602ZM9.0633 14.5844C9.66173 14.9297 9.66486 15.4844 9.07111 15.8297C8.48126 16.1719 7.52423 16.1719 6.9258 15.8266C6.33283 15.4844 6.32423 14.9273 6.91408 14.5844C7.50783 14.2391 8.47033 14.2422 9.0633 14.5844ZM37.086 23.2906C37.6844 23.6359 37.6875 24.1906 37.0938 24.5359C36.5039 24.8781 35.5414 24.8813 34.9438 24.5359C34.35 24.1938 34.3524 23.6359 34.9414 23.2938C35.5352 22.9484 36.493 22.9484 37.086 23.2906ZM30.636 27.0391C31.2336 27.3844 31.2375 27.9391 30.6438 28.2844C30.0539 28.6266 29.0969 28.6266 28.4985 28.2812C27.9047 27.9391 27.9024 27.3844 28.4914 27.0422C29.0852 26.6969 30.043 26.6969 30.636 27.0391Z" fill="#46A046"/>
<path d="M14.4375 9.73828L38.9898 23.9133L29.5789 29.382L19.4664 23.5437L5.02655 15.2086L14.4375 9.73828ZM17.3281 22.2773C19.9273 23.7773 24.1367 23.775 26.7141 22.2773C29.2914 20.7797 29.2828 18.3406 26.6836 16.8398C24.0898 15.343 19.875 15.343 17.2984 16.8398C14.7219 18.3367 14.7336 20.7797 17.3281 22.2773ZM9.3953 16.0117L14.7203 19.0641C14.893 18.1453 15.5828 17.2539 16.7945 16.55C18.0062 15.8461 19.5383 15.4461 21.1281 15.3398L15.8226 12.2773C16.6078 11.8203 16.6039 11.0977 15.832 10.6516C15.0648 10.2078 13.8117 10.2055 13.0445 10.6516C12.2773 11.0969 12.2906 11.8203 13.0578 12.2633L9.40624 14.4133C8.61483 13.9562 7.36171 13.9539 6.59921 14.3977C5.82811 14.8453 5.84139 15.5688 6.60858 16.0117C7.38124 16.457 8.62343 16.4602 9.3953 16.0117ZM30.9547 26.8547L34.6125 24.707C35.4031 25.1641 36.6469 25.1664 37.4141 24.7211C38.1812 24.275 38.1773 23.5516 37.4055 23.1062C36.6375 22.6633 35.3898 22.6633 34.6219 23.1086L29.2976 20.0563C29.1148 20.975 28.4305 21.8641 27.2187 22.568C26.007 23.2719 24.4703 23.6742 22.8898 23.7805L28.1953 26.843C27.4047 27.3031 27.414 28.0227 28.1812 28.4664C28.9531 28.9117 30.1969 28.9148 30.9687 28.4664C31.7312 28.0234 31.7266 27.3 30.9547 26.8547ZM17.8398 12.2281L17.143 12.6328L19.9867 14.275L20.6836 13.8695L17.8398 12.2281ZM31.8367 20.3094L31.1398 20.7141L33.9789 22.3531L34.6758 21.9484L31.8367 20.3094ZM12.1805 18.8117L12.8719 18.4094L10.0281 16.7672L9.33593 17.1695L12.1805 18.8117ZM26.1726 26.8898L26.8648 26.4875L24.0258 24.8484L23.3336 25.2508L26.1726 26.8898Z" fill="#46A046"/>
<path d="M30.3922 17.935L19.2266 24.4248L18.7125 24.1279L29.8781 17.6396L30.3922 17.935Z" fill="#86AEDC"/>
<path d="M33.3906 19.6673L22.2266 26.1556L19.2274 24.4243L30.393 17.936L33.3906 19.6673Z" fill="#E3E6F0"/>
<path d="M33.9016 19.9623L22.7367 26.4506L22.225 26.1553L33.3906 19.667L33.9016 19.9623Z" fill="#86AEDC"/>
<path d="M19.2266 24.424L19.2031 27.9873L18.6891 27.6904L18.7125 24.1279L19.2266 24.424Z" fill="#678CC8"/>
<path d="M22.2227 26.154L22.1992 29.7173L19.2031 27.9876L19.2266 24.4243L22.2227 26.154Z" fill="#D4DBE9"/>
<path d="M22.7367 26.4509L22.7133 30.0142L22.1992 29.7173L22.2227 26.1548L22.7367 26.4509Z" fill="#678CC8"/>
<path d="M37.625 16.1875L37.6133 19.75L26.4476 26.2383L26.4594 22.6758L37.625 16.1875Z" fill="#5EAF5F"/>
<path d="M26.4594 22.6757L26.4477 26.2382L0.125 11.0405L0.136719 7.47803L26.4594 22.6757Z" fill="#7BC578"/>
<path d="M37.625 16.1874L26.4594 22.6749L0.136719 7.47803L11.3023 0.989746L37.625 16.1874Z" fill="#98D095"/>
<path d="M28.0813 15.5429L27.7766 15.7194C28.0461 15.9616 28.0477 16.2554 27.7485 16.4288L27.3578 16.2038C27.493 16.1249 27.4266 15.9452 27.2149 15.8226C26.9977 15.6976 26.6883 15.6601 26.5524 15.739C26.4164 15.8171 26.4836 15.9968 26.7 16.1218C27.1375 16.3749 27.2008 16.7468 26.8453 16.9538C26.5461 17.128 26.0391 17.1272 25.625 16.9694L25.3211 17.1468L24.9305 16.921L25.2352 16.7444C24.9617 16.5054 24.9594 16.2116 25.2586 16.0374L25.6492 16.264C25.5141 16.3421 25.5852 16.5187 25.8016 16.6437C26.0133 16.7663 26.3188 16.8069 26.4547 16.728C26.5953 16.6468 26.5235 16.4702 26.3117 16.3476C25.8742 16.0944 25.8063 15.7194 26.1617 15.5132C26.461 15.339 26.968 15.339 27.386 15.4937L27.6906 15.3171L28.0813 15.5429ZM12.832 6.73897L12.5274 6.91553C12.7961 7.15772 12.8031 7.45381 12.5039 7.62725L12.1078 7.39912C12.2438 7.321 12.182 7.14365 11.9649 7.01865C11.7485 6.89365 11.4383 6.85537 11.3031 6.93428C11.1672 7.0124 11.2336 7.19209 11.4508 7.31709C11.8883 7.57022 11.9563 7.94522 11.6008 8.15225C11.3016 8.32647 10.7899 8.32334 10.3758 8.16553L10.0719 8.34209L9.68126 8.11709L9.98517 7.94053C9.71173 7.70069 9.71017 7.40772 10.0094 7.2335L10.4 7.45928C10.2649 7.5374 10.336 7.71475 10.5524 7.83975C10.7688 7.96475 11.0695 8.00303 11.2055 7.92412C11.3461 7.84209 11.2789 7.66865 11.0625 7.54365C10.625 7.29053 10.5563 6.91553 10.9125 6.7085C11.2117 6.53506 11.718 6.53506 12.1367 6.68975L12.4414 6.51318L12.832 6.73897ZM12.3891 3.10693C12.9867 3.45225 12.9899 4.00694 12.3961 4.35225C11.8063 4.69444 10.8445 4.69756 10.2469 4.35225C9.65314 4.00928 9.65001 3.4499 10.2391 3.10693C10.8328 2.76162 11.7953 2.76475 12.3891 3.10693ZM22.7711 10.1312L22.018 10.5687C22.6875 11.1608 22.6922 11.8843 21.9477 12.3163L20.9828 11.7593C21.3195 11.564 21.1531 11.1265 20.6211 10.8187C20.0938 10.514 19.3328 10.4163 18.9961 10.6124C18.6602 10.8077 18.8313 11.2483 19.3586 11.5522C20.4414 12.1772 20.6055 13.0968 19.7258 13.6069C18.9875 14.0366 17.7344 14.0397 16.7141 13.6507L15.9563 14.0913L14.9914 13.5343L15.7492 13.0937C15.0742 12.5038 15.0703 11.7757 15.8094 11.346L16.7742 11.903C16.4383 12.0983 16.6094 12.539 17.1367 12.8437C17.668 13.1507 18.4242 13.246 18.7617 13.0507C19.0977 12.8546 18.9313 12.4171 18.3992 12.1101C17.3211 11.4874 17.157 10.5632 18.0313 10.0554C18.775 9.62256 20.0281 9.62569 21.0531 10.0116L21.8063 9.57412L22.7711 10.1312ZM5.9383 6.85537C6.53673 7.20068 6.53986 7.75537 5.94611 8.10069C5.35626 8.44287 4.39923 8.44287 3.8008 8.09756C3.20783 7.75537 3.19923 7.19834 3.78908 6.85537C4.38283 6.51006 5.34533 6.51318 5.9383 6.85537ZM33.961 15.5616C34.5594 15.9069 34.5625 16.4616 33.9688 16.8069C33.3789 17.1491 32.4164 17.1522 31.8188 16.8069C31.225 16.4647 31.2274 15.9069 31.8164 15.5647C32.4102 15.2194 33.368 15.2194 33.961 15.5616ZM27.511 19.3101C28.1086 19.6554 28.1125 20.2101 27.5188 20.5554C26.9289 20.8976 25.9719 20.8976 25.3735 20.5522C24.7797 20.2101 24.7774 19.6554 25.3664 19.3132C25.9602 18.9679 26.918 18.9679 27.511 19.3101Z" fill="#46A046"/>
<path d="M11.3125 2.00928L35.8648 16.1843L26.4539 21.653L16.3414 15.8147L1.90155 7.47959L11.3125 2.00928ZM14.2031 14.5483C16.8023 16.0483 21.0117 16.046 23.5891 14.5483C26.1664 13.0507 26.1578 10.6116 23.5586 9.11084C20.9648 7.61397 16.75 7.61397 14.1734 9.11084C11.5969 10.6077 11.6086 13.0507 14.2031 14.5483ZM6.2703 8.28272L11.5953 11.3351C11.768 10.4163 12.4578 9.5249 13.6695 8.821C14.8812 8.11709 16.4133 7.71709 18.0031 7.61084L12.6976 4.54834C13.4828 4.09131 13.4789 3.36865 12.707 2.92256C11.9398 2.47881 10.6867 2.47646 9.91952 2.92256C9.15233 3.36787 9.16561 4.09131 9.9328 4.53428L6.28124 6.68428C5.48983 6.22725 4.23671 6.2249 3.47421 6.66865C2.70311 7.11631 2.71639 7.83975 3.48358 8.28272C4.25624 8.72803 5.49843 8.73115 6.2703 8.28272ZM27.8297 19.1257L31.4875 16.978C32.2781 17.4351 33.5219 17.4374 34.2891 16.9921C35.0562 16.546 35.0523 15.8226 34.2805 15.3772C33.5125 14.9343 32.2648 14.9343 31.4969 15.3796L26.1726 12.3272C25.9898 13.246 25.3055 14.1351 24.0937 14.839C22.882 15.5429 21.3453 15.9452 19.7648 16.0515L25.0703 19.114C24.2797 19.5741 24.289 20.2937 25.0562 20.7374C25.8281 21.1827 27.0719 21.1858 27.8437 20.7374C28.6062 20.2944 28.6016 19.571 27.8297 19.1257ZM14.7148 4.49912L14.018 4.90381L16.8617 6.546L17.5586 6.14053L14.7148 4.49912ZM28.7117 12.5804L28.0148 12.9851L30.8539 14.6241L31.5508 14.2194L28.7117 12.5804ZM9.05546 11.0827L9.74686 10.6804L6.90311 9.03818L6.21093 9.44053L9.05546 11.0827ZM23.0476 19.1608L23.7398 18.7585L20.9008 17.1194L20.2086 17.5218L23.0476 19.1608Z" fill="#46A046"/>
<path d="M27.2672 10.206L16.1016 16.6958L15.5875 16.3989L26.7531 9.91064L27.2672 10.206Z" fill="#86AEDC"/>
<path d="M30.2656 11.9383L19.1016 18.4266L16.1024 16.6953L27.268 10.207L30.2656 11.9383Z" fill="#E3E6F0"/>
<path d="M30.7766 12.2333L19.6117 18.7216L19.1 18.4263L30.2656 11.938L30.7766 12.2333Z" fill="#86AEDC"/>
<path d="M16.1016 16.695L16.0781 20.2583L15.5641 19.9614L15.5875 16.3989L16.1016 16.695Z" fill="#678CC8"/>
<path d="M19.0977 18.425L19.0742 21.9883L16.0781 20.2586L16.1016 16.6953L19.0977 18.425Z" fill="#D4DBE9"/>
<path d="M19.6117 18.7219L19.5883 22.2852L19.0742 21.9883L19.0977 18.4258L19.6117 18.7219Z" fill="#678CC8"/>
</svg>
