<svg width="20" height="18" viewBox="0 0 20 18" fill="none" xmlns="http://www.w3.org/2000/svg">
<path fill-rule="evenodd" clip-rule="evenodd" d="M8.48641 1.11437C9.16081 -0.0478954 10.8392 -0.0478855 11.5136 1.11437L13.579 4.67373C13.7694 5.00182 14.0984 5.22571 14.4735 5.28236L17.9031 5.80036C19.3981 6.02617 19.9225 7.91378 18.7582 8.87828L16.2593 10.9487C15.9086 11.2392 15.7437 11.6976 15.8289 12.1451L16.5289 15.821C16.8031 17.261 15.2914 18.3798 13.9944 17.6968L10.5824 15.9003C10.2178 15.7083 9.78221 15.7083 9.41761 15.9003L6.0056 17.6968C4.70859 18.3798 3.19696 17.261 3.47116 15.821L4.17114 12.1451C4.25634 11.6976 4.09142 11.2392 3.74068 10.9487L1.24178 8.87828C0.0774928 7.91378 0.601903 6.02617 2.09689 5.80036L5.52654 5.28236C5.9016 5.22571 6.23065 5.00182 6.42102 4.67373L8.48641 1.11437ZM10.2162 1.8672C10.1199 1.70116 9.88011 1.70116 9.78381 1.8672L7.71842 5.42656C7.2996 6.14835 6.57569 6.64091 5.75055 6.76553L2.32091 7.28358C2.10734 7.31578 2.03242 7.58548 2.19875 7.72328L4.69765 9.79358C5.46928 10.4329 5.83211 11.4413 5.64466 12.4256L4.94468 16.1016C4.90551 16.3073 5.12145 16.4672 5.30674 16.3696L8.71881 14.573C9.52071 14.1507 10.4793 14.1507 11.2812 14.573L14.6933 16.3696C14.8786 16.4672 15.0945 16.3073 15.0553 16.1016L14.3554 12.4256C14.1679 11.4413 14.5307 10.4329 15.3024 9.79358L17.8013 7.72328C17.9676 7.58548 17.8927 7.31578 17.6791 7.28358L14.2495 6.76553C13.4243 6.64091 12.7004 6.14835 12.2816 5.42656L10.2162 1.8672Z" fill="#675700"/>
</svg>
