<svg width="69" height="53" viewBox="0 0 69 53" fill="none" xmlns="http://www.w3.org/2000/svg">
<path d="M64.4093 0H34.344L31.6588 47.1266L64.4093 44.4414V0Z" fill="#193C3F"/>
<path d="M4.27876 0V44.4414L34.344 47.1266V0H4.27876Z" fill="#375A5D"/>
<path d="M68.688 44.4414H34.344L31.6588 48.7201L34.344 52.9989H68.688V44.4414Z" fill="#416467"/>
<path d="M0 44.4423H34.344V53H0V44.4423Z" fill="#55787B"/>
<path d="M60.3845 4.02454H34.344L31.6588 22.2207L34.344 40.4166H60.3845V4.02454Z" fill="#3CB27F"/>
<path d="M8.30441 4.02454H34.344V40.416H8.30441V4.02454Z" fill="#5AD09D"/>
<path d="M23.9909 32.8826L13.329 22.2207L23.9909 11.5588L26.8367 14.4046L19.0206 22.2207L26.8367 30.0368L23.9909 32.8826Z" fill="white"/>
<path d="M44.6971 32.8826L41.8513 30.0368L49.6674 22.2207L41.8513 14.4046L44.6971 11.5588L55.359 22.2207L44.6971 32.8826Z" fill="white"/>
<path d="M33.8365 35.0907L29.889 34.3058L34.8503 9.35496L38.7977 10.1399L33.8365 35.0907Z" fill="white"/>
</svg>
