<svg xmlns="http://www.w3.org/2000/svg" width="618" height="593" fill="none"><rect width="452.494" height="451.561" x="151.416" y="123.695" fill="#3CB27F" fill-opacity=".07" rx="225.781"/><rect width="452.494" height="451.561" x="77.362" fill="#3CB27F" fill-opacity=".07" rx="225.781"/><path fill="#3CB27F" fill-opacity=".2" d="M532.362 91c-36.931 0-67 29.924-67 67 0 36.93 29.923 67 67 67 36.93 0 67-29.924 67-67s-29.924-67-67-67Zm0 109.623c-23.647 0-42.769-19.122-42.769-42.769s19.122-42.769 42.769-42.769 42.769 19.122 42.769 42.769-19.122 42.769-42.769 42.769Z"/><path fill="#006C39" d="M408.762 583.823c0 4.877-4.036 8.913-8.913 8.913h-223.66c-4.877 0-8.913-4.036-8.913-8.913 0-4.877 4.036-8.913 8.913-8.913h79.374l10.931-20.18h43.051l10.93 20.18h79.374c4.877.168 8.913 4.036 8.913 8.913Z"/><path fill="#3CB27F" d="M299.765 482.891h-22.294a8.5 8.5 0 0 0 0 17h22.294a8.5 8.5 0 0 0 0-17ZM299.765 507.891h-22.294a8.5 8.5 0 0 0 0 17h22.294a8.5 8.5 0 0 0 0-17ZM299.765 532.891h-22.294a8.5 8.5 0 0 0 0 17h22.294a8.5 8.5 0 0 0 0-17Z"/><path stroke="#3CB27F" stroke-linecap="round" stroke-linejoin="round" stroke-miterlimit="10" stroke-width="1.128" d="M579.337 444.414c-6.391 2.522-13.285 3.867-20.517 3.867-31.615 0-57.344-25.729-57.344-57.344 0-31.615 25.729-57.345 57.344-57.345 31.616 0 57.345 25.73 57.345 57.345 0 8.408-1.85 16.48-5.213 23.711"/><path fill="#55787B" d="M214.706 95.647h-9.081c-1.85-8.071-5.045-15.807-9.417-22.702l6.39-6.39c2.859-2.859 2.859-7.231 0-10.09l-14.294-14.294c-2.859-2.859-7.231-2.859-10.09 0l-6.39 6.39a79.897 79.897 0 0 0-22.703-9.417v-9.081c0-3.868-3.195-7.063-7.063-7.063H121.71c-3.867 0-7.062 3.195-7.062 7.063v9.08c-8.072 1.85-15.808 5.046-22.703 9.418l-6.39-6.39c-2.859-2.859-7.231-2.859-10.09 0L61.17 56.465c-2.859 2.859-2.859 7.231 0 10.09l6.39 6.39a79.9 79.9 0 0 0-9.417 22.703h-9.081c-3.868 0-7.063 3.195-7.063 7.062v20.349c0 3.867 3.195 7.062 7.063 7.062h9.08c1.85 8.072 5.046 15.808 9.418 22.703l-6.39 6.39c-2.859 2.859-2.859 7.231 0 10.09l14.294 14.294c2.859 2.859 7.231 2.859 10.09 0l6.39-6.39a79.898 79.898 0 0 0 22.703 9.417v9.081c0 3.868 3.195 7.063 7.062 7.063h20.348c3.868 0 7.063-3.195 7.063-7.063v-8.913c8.072-1.85 15.808-5.045 22.703-9.417l6.39 6.39c2.859 2.859 7.231 2.859 10.09 0l14.294-14.294c2.859-2.859 2.859-7.231 0-10.09l-6.39-6.39a79.908 79.908 0 0 0 9.417-22.702h9.081c3.868 0 7.063-3.196 7.063-7.063v-20.348c.168-4.036-3.027-7.232-7.063-7.232ZM131.8 149.292c-20.011 0-36.323-16.312-36.323-36.323 0-20.012 16.312-36.324 36.323-36.324 20.012 0 36.324 16.312 36.324 36.324-.168 20.011-16.312 36.323-36.324 36.323Z"/><g filter="url(#a)"><path fill="#fff" d="M37.339 476.029C26.745 476.029 18 467.452 18 456.69V154.833c0-10.595 8.576-19.34 19.339-19.34h503.656c10.594 0 19.339 8.577 19.339 19.34V456.69c0 10.594-8.577 19.339-19.339 19.339H37.339Z"/></g><path fill="#EDF6F3" fill-rule="evenodd" d="M23 453.202C23 463.664 31.594 472 42.006 472h494.988c10.577 0 19.006-8.5 19.006-18.798V159.798c0-10.462-8.594-18.798-19.006-18.798H42.006C31.43 141 23 149.5 23 159.798v293.404Zm9-7.091C32 456.067 40.32 464 50.4 464h479.2c10.24 0 18.4-8.089 18.4-17.889V166.889c0-9.956-8.32-17.889-18.4-17.889H50.4c-10.24 0-18.4 8.089-18.4 17.889v279.222Z" clip-rule="evenodd"/><path fill="#3CB27F" d="M107.548 177.703H63.825a6.138 6.138 0 1 0 0 12.276h43.723a6.138 6.138 0 1 0 0-12.276ZM174.814 177.703h-43.723a6.138 6.138 0 1 0 0 12.276h43.723a6.138 6.138 0 1 0 0-12.276ZM345.502 177.703h-43.723a6.138 6.138 0 1 0 0 12.276h43.723a6.138 6.138 0 1 0 0-12.276ZM516.191 177.703h-43.723a6.138 6.138 0 1 0 0 12.276h43.723a6.138 6.138 0 1 0 0-12.276Z"/><path fill="#55787B" d="M282.44 177.703h-87.782a6.138 6.138 0 1 0 0 12.276h87.782a6.138 6.138 0 1 0 0-12.276ZM452.119 177.703h-87.782a6.138 6.138 0 1 0 0 12.276h87.782a6.138 6.138 0 1 0 0-12.276Z"/><path fill="#3CB27F" d="M64.582 167.949h-3.7a3.027 3.027 0 0 0 0 6.054h3.7a3.027 3.027 0 1 0 0-6.054Z"/><path fill="#55787B" d="M157.073 200.069h-96.19a3.027 3.027 0 1 0 0 6.054h96.19a3.027 3.027 0 1 0 0-6.054ZM85.098 210.663H60.882a3.027 3.027 0 0 0 0 6.054h24.216a3.027 3.027 0 1 0 0-6.054Z"/><path fill="#3CB27F" d="M166.154 432.81H71.308c-7.063 0-12.78-5.717-12.78-12.78V248.501c0-7.063 5.718-12.781 12.78-12.781h94.846c7.063 0 12.78 5.718 12.78 12.781V420.03c0 7.063-5.717 12.78-12.78 12.78Z"/><path fill="#fff" d="M110.912 264.476H76.774a3.111 3.111 0 0 0 0 6.223h34.138a3.111 3.111 0 0 0 0-6.223ZM110.911 278.266H76.774a3.111 3.111 0 0 0 0 6.222h34.137a3.111 3.111 0 1 0 0-6.222ZM110.911 291.887H76.774a3.111 3.111 0 0 0 0 6.223h34.137a3.111 3.111 0 1 0 0-6.223ZM95.272 349.232H76.774a3.111 3.111 0 0 0 0 6.222h18.498a3.111 3.111 0 0 0 0-6.222ZM95.272 363.021H76.774a3.111 3.111 0 0 0 0 6.223h18.498a3.111 3.111 0 0 0 0-6.223ZM137.65 363.021h-18.498a3.112 3.112 0 1 0 0 6.223h18.498a3.111 3.111 0 0 0 0-6.223ZM86.023 333.592h-9.25a3.111 3.111 0 0 0 0 6.223h9.25a3.111 3.111 0 0 0 0-6.223ZM145.217 333.592h-2.018a3.111 3.111 0 0 0 0 6.223h2.018a3.111 3.111 0 0 0 0-6.223Z"/><path fill="#193C3F" d="M133.782 333.592H97.626a3.111 3.111 0 0 0 0 6.223h36.156a3.111 3.111 0 0 0 0-6.223ZM79.549 313.665v-.336a2.943 2.943 0 1 0-5.886 0v.336a2.943 2.943 0 0 0 5.886 0ZM79.549 324.596v-.337a2.943 2.943 0 0 0-5.886 0v.337a2.943 2.943 0 0 0 5.886 0Z"/><path fill="#fff" d="M106.623 370.421h-2.186l5.213-7.904h2.186l-5.213 7.904Z"/><path fill="#193C3F" d="M162.538 381.015H76.269a2.607 2.607 0 0 0 0 5.213h86.269a2.607 2.607 0 1 0 0-5.213Z"/><path fill="#3CB27F" d="M606.373 326.146H354.797c-6.222 0-11.435-5.045-11.435-11.435v-68.276c0-6.222 5.045-11.435 11.435-11.435h251.576c6.222 0 11.435 5.045 11.435 11.435v68.276c-.168 6.222-5.213 11.435-11.435 11.435Z"/><path stroke="#fff" stroke-miterlimit="10" stroke-width="1.128" d="M424.922 293.858s13.958-34.138 53.645-25.898c39.855 8.241 60.035 53.141 111.325 16.481"/><path fill="#193C3F" stroke="#fff" stroke-miterlimit="10" stroke-width="1.128" d="M553.905 295.708h-5.718v5.717h5.718v-5.717Z"/><path stroke="#fff" stroke-miterlimit="10" stroke-width=".564" d="M431.817 266.447h72.143M514.891 300.248h72.143"/><path fill="#193C3F" stroke="#fff" stroke-miterlimit="10" stroke-width="1.128" d="M467.972 263.588h-5.717v5.718h5.717v-5.718Z"/><path fill="#fff" d="M411.469 312.692a1.85 1.85 0 1 0 3.7 0 1.85 1.85 0 0 0-3.7 0ZM424.081 312.692a1.85 1.85 0 1 0 3.7 0 1.85 1.85 0 0 0-3.7 0ZM436.862 312.692a1.85 1.85 0 1 0 3.7 0 1.85 1.85 0 0 0-3.7 0ZM590.733 254.003h-55.326a3.027 3.027 0 1 0 0 6.054h55.326a3.027 3.027 0 0 0 0-6.054Z"/><path fill="#193C3F" d="M547.515 264.597h-12.108a3.027 3.027 0 1 0 0 6.054h12.108a3.027 3.027 0 1 0 0-6.054ZM162.538 392.955H76.269a2.606 2.606 0 1 0 0 5.213h86.269a2.607 2.607 0 1 0 0-5.213Z"/><path fill="#55787B" d="M390.487 340.487h-54.318c-4.54 0-8.24-3.699-8.24-8.24v-81.56c0-4.541 3.7-8.24 8.24-8.24h54.318c4.54 0 8.24 3.699 8.24 8.24v81.56c-.168 4.541-3.7 8.24-8.24 8.24Z"/><path fill="#fff" d="M376.445 256.404h-34.81a2.775 2.775 0 0 0 0 5.55h34.81a2.775 2.775 0 0 0 0-5.55Z"/><path fill="#193C3F" d="M376.445 268.849h-34.81a2.774 2.774 0 1 0 0 5.549h34.81a2.775 2.775 0 1 0 0-5.549Z"/><path fill="#fff" d="M351.22 281.125h-9.585a2.774 2.774 0 1 0 0 5.549h9.585a2.774 2.774 0 1 0 0-5.549Z"/><path fill="#193C3F" d="M362.319 294.074h-20.684a2.774 2.774 0 1 0 0 5.549h20.684a2.775 2.775 0 0 0 0-5.549Z"/><path fill="#fff" d="M353.743 306.35h-12.108a2.774 2.774 0 1 0 0 5.549h12.108a2.774 2.774 0 0 0 0-5.549ZM353.743 318.794h-12.108a2.774 2.774 0 1 0 0 5.549h12.108a2.774 2.774 0 0 0 0-5.549Z"/><path stroke="#3CB27F" stroke-miterlimit="10" stroke-width="1.015" d="m508.539 374.289-9.754 7.735-14.126 2.355s-13.285-.841-14.462-.841c-1.345 0-10.258-7.231-10.258-7.231l-16.648-6.054-11.604 4.204-13.621-3.027-20.516-1.346-19.676 7.736-16.144 2.523-14.462 4.708-16.144 1.346-17.489-13.622-16.144-3.027-16.648 9.417-13.285 4.204-14.967-.504-19.003 11.603h-11.267l-19.003 6.727"/><path stroke="#fff" stroke-miterlimit="10" stroke-width=".254" d="M203.318 401.7h305.725"/><path fill="#55787B" d="M203.487 397.832h-3.196v7.735h3.196v-7.735Z"/><path fill="#F7F7F7" d="M510.389 397.832h-3.195v7.735h3.195v-7.735Z"/><path stroke="#F7F7F7" stroke-miterlimit="10" stroke-width=".254" d="M508.707 401.7v-25.73"/><path fill="#55787B" d="M510.389 374.625c0 1.345-1.009 2.354-2.355 2.354-1.345 0-2.354-1.009-2.354-2.354 0-1.345 1.009-2.354 2.354-2.354 1.346 0 2.355 1.009 2.355 2.354ZM462.293 412.798H275.63a1.682 1.682 0 1 0 0 3.364h186.663a1.682 1.682 0 1 0 0-3.364Z"/><path fill="#3CB27F" d="M388.973 412.798H275.63a1.682 1.682 0 1 0 0 3.364h113.343a1.682 1.682 0 1 0 0-3.364Z"/><path fill="#193C3F" d="M365.766 419.357H275.63a1.682 1.682 0 1 0 0 3.363h90.136a1.682 1.682 0 1 0 0-3.363Z"/><path fill="#3CB27F" d="M213.661 430.54a3.73 3.73 0 0 1 2.638-1.093h8.879a1.597 1.597 0 1 0 0-3.195h-17.992a2.69 2.69 0 1 0 0 5.381h3.836c.989 0 1.939-.393 2.639-1.093Z"/><path fill="#F7F7F7" d="M238.633 426.252h-1.345v1.345h1.345v-1.345ZM246.537 426.252h-1.345v1.345h1.345v-1.345ZM254.441 426.252h-1.346v1.345h1.346v-1.345Z"/><path fill="#55787B" d="M496.198 360.533c-.338 0-.643-.067-.914-.202a1.696 1.696 0 0 1-.652-.554 1.504 1.504 0 0 1-.268-.801h.692a.948.948 0 0 0 .364.663c.217.173.476.259.778.259.243 0 .458-.056.646-.17.191-.113.34-.269.447-.467.11-.2.165-.426.165-.678 0-.257-.057-.487-.17-.689a1.26 1.26 0 0 0-1.134-.661 1.859 1.859 0 0 0-.556.084 1.562 1.562 0 0 0-.471.216l-.669-.08.358-2.908h3.069v.635h-2.469l-.208 1.742h.035c.121-.096.273-.176.455-.239.183-.064.374-.096.572-.096a1.815 1.815 0 0 1 1.635.964c.163.298.245.638.245 1.021 0 .377-.085.713-.254 1.009a1.855 1.855 0 0 1-.692.698 1.98 1.98 0 0 1-1.004.254Zm5.023 0c-.435 0-.805-.118-1.111-.355-.306-.238-.539-.583-.701-1.035-.161-.454-.242-1.002-.242-1.644 0-.639.081-1.184.242-1.636.164-.453.398-.799.704-1.038.308-.24.677-.36 1.108-.36.43 0 .798.12 1.104.36.308.239.542.585.704 1.038.163.452.245.997.245 1.636 0 .642-.081 1.19-.242 1.644-.162.452-.395.797-.701 1.035-.306.237-.676.355-1.11.355Zm0-.635c.43 0 .765-.207 1.003-.622.239-.416.358-1.008.358-1.777 0-.512-.055-.947-.165-1.307-.107-.359-.263-.633-.467-.822a1.032 1.032 0 0 0-.729-.282c-.427 0-.761.21-1.001.631-.241.419-.361 1.013-.361 1.78 0 .511.054.946.162 1.303.107.358.262.63.464.817.204.186.449.279.736.279Zm5.076.635c-.435 0-.805-.118-1.111-.355-.305-.238-.539-.583-.701-1.035-.161-.454-.242-1.002-.242-1.644 0-.639.081-1.184.242-1.636.164-.453.398-.799.704-1.038.308-.24.677-.36 1.108-.36.43 0 .799.12 1.104.36.308.239.543.585.704 1.038.164.452.245.997.245 1.636 0 .642-.08 1.19-.242 1.644-.161.452-.395.797-.701 1.035-.306.237-.676.355-1.11.355Zm0-.635c.43 0 .765-.207 1.003-.622.239-.416.358-1.008.358-1.777 0-.512-.055-.947-.164-1.307-.108-.359-.264-.633-.468-.822a1.03 1.03 0 0 0-.729-.282c-.427 0-.761.21-1.001.631-.24.419-.361 1.013-.361 1.78 0 .511.054.946.162 1.303.108.358.262.63.464.817.204.186.449.279.736.279Z"/><path fill="#05282B" d="M476.828 421.321a1.235 1.235 0 0 1-2.253 1.015l-3.537-7.705a1.294 1.294 0 1 1 2.359-1.063l3.431 7.753ZM484.183 421.22a1.307 1.307 0 1 1-2.39 1.058l-3.384-7.643a1.308 1.308 0 0 1 2.391-1.059l3.383 7.644ZM491.582 421.22a1.307 1.307 0 1 1-2.39 1.058l-3.384-7.643a1.308 1.308 0 0 1 2.391-1.059l3.383 7.644ZM498.981 421.22a1.307 1.307 0 1 1-2.39 1.058l-3.383-7.643a1.307 1.307 0 1 1 2.39-1.059l3.383 7.644ZM506.352 421.224a1.294 1.294 0 1 1-2.358 1.063l-3.432-7.753a1.236 1.236 0 0 1 2.253-1.015l3.537 7.705Z"/><path fill="#3CB27F" d="M564.402 422.689c17.787-2.868 29.881-19.613 27.013-37.4-2.869-17.787-19.613-29.881-37.4-27.013-17.788 2.868-29.882 19.613-27.013 37.4 2.868 17.788 19.613 29.882 37.4 27.013Z"/><path fill="#fff" d="m563.375 374.666-8.913 29.759 4.116 1.233 8.912-29.76-4.115-1.232Z"/><path fill="#F9FBFC" d="m567.524 382.129 18.498 7.063v5.045l-18.498 7.063v-4.877l12.949-4.708-12.949-4.709v-4.877ZM552.435 387.006l-12.949 4.709 12.949 4.708v4.877l-18.498-7.063v-5.045l18.498-7.063v4.877Z"/><path stroke="#3CB27F" stroke-miterlimit="10" stroke-width="1.128" d="M613.306 417.507a4.163 4.163 0 0 1-4.204 4.204 4.163 4.163 0 0 1-4.204-4.204 4.163 4.163 0 0 1 4.204-4.204c2.186 0 4.204 1.85 4.204 4.204Z"/><path fill="#55787B" d="M309.767 234.207H202.309a2.859 2.859 0 0 0 0 5.717h107.458a2.859 2.859 0 1 0 0-5.717Z"/><path fill="#3CB27F" d="M247.882 234.207h-45.573a2.859 2.859 0 0 0 0 5.717h45.573a2.859 2.859 0 1 0 0-5.717Z"/><path fill="#55787B" d="M309.767 249.005H202.309a2.858 2.858 0 0 0 0 5.718h107.458a2.859 2.859 0 1 0 0-5.718Z"/><path fill="#3CB27F" d="M275.293 249.005h-72.984a2.858 2.858 0 0 0 0 5.718h72.984a2.859 2.859 0 1 0 0-5.718Z"/><path fill="#55787B" d="M309.767 263.636H202.309a2.859 2.859 0 0 0 0 5.717h107.458a2.859 2.859 0 1 0 0-5.717Z"/><path fill="#3CB27F" d="M219.63 263.636h-17.321a2.859 2.859 0 0 0 0 5.717h17.321a2.859 2.859 0 1 0 0-5.717Z"/><path fill="#55787B" d="M202.141 224.285h-2.186v2.186h2.186v-2.186ZM209.709 224.285h-2.186v2.186h2.186v-2.186ZM217.276 224.285h-2.186v2.186h2.186v-2.186ZM487.282 159.284a3.448 3.448 0 1 0 6.895-.001 3.448 3.448 0 0 0-6.895.001ZM500.558 159.284a3.447 3.447 0 1 0 6.894 0 3.448 3.448 0 1 0-6.894 0Z"/><path fill="#FC0000" d="M513.833 159.284a3.447 3.447 0 1 0 6.895 0 3.448 3.448 0 0 0-6.895 0Z"/><path fill="#3CB27F" d="M365.766 444.498a3.448 3.448 0 1 0 6.895-.001 3.448 3.448 0 0 0-6.895.001ZM389.478 444.498a3.447 3.447 0 1 0 6.894 0 3.448 3.448 0 1 0-6.894 0ZM413.189 444.498a3.447 3.447 0 1 0 6.895 0 3.447 3.447 0 0 0-6.895 0Z"/><path fill="#fff" d="M75.68 251.36a1.85 1.85 0 1 0 3.7 0 1.85 1.85 0 0 0-3.7 0ZM88.461 251.36a1.85 1.85 0 1 0 3.7-.001 1.85 1.85 0 0 0-3.7.001ZM101.074 251.36a1.85 1.85 0 1 0 3.699 0 1.85 1.85 0 0 0-3.699 0Z"/><path fill="#55787B" d="M222.826 287.179c-11.436 0-20.685 9.249-20.685 20.684s9.249 20.685 20.685 20.685c11.435 0 20.684-9.25 20.684-20.685 0-11.267-9.249-20.684-20.684-20.684Zm0 31.615c-6.054 0-10.763-4.877-10.763-10.763 0-5.885 4.877-10.762 10.763-10.762 6.054 0 10.762 4.877 10.762 10.762 0 5.886-4.877 10.763-10.762 10.763Z"/><path fill="#3CB27F" d="M208.7 306.013c1.85 0 3.699-1.177 4.54-2.858 1.85-3.532 5.381-5.886 9.586-5.886 4.204 0 7.903 2.354 9.585 5.886.841 1.681 2.523 2.858 4.541 2.858 3.699 0 6.053-3.867 4.54-7.063-3.363-6.894-10.426-11.603-18.666-11.603-8.241 0-15.303 4.709-18.667 11.603-1.681 3.196.841 7.063 4.541 7.063Z"/><path fill="#55787B" d="M257.636 308.031c0 11.436 9.249 20.685 20.684 20.685 11.436 0 20.685-9.249 20.685-20.685 0-11.435-9.249-20.684-20.685-20.684-11.435-.168-20.684 9.249-20.684 20.684Zm31.615 0c0 6.054-4.877 10.763-10.762 10.763-6.054 0-10.763-4.877-10.763-10.763 0-6.054 4.877-10.762 10.763-10.762 5.885 0 10.762 4.708 10.762 10.762Z"/><path fill="#3CB27F" d="M276.302 322.157c0-1.85-1.177-3.699-2.859-4.54-3.531-1.85-5.885-5.381-5.885-9.586 0-4.204 2.354-7.903 5.885-9.585 1.682-.841 2.859-2.523 2.859-4.541 0-3.699-3.868-6.054-7.063-4.54-6.894 3.363-11.603 10.426-11.603 18.666s4.709 15.303 11.603 18.667c3.364 1.513 7.063-1.009 7.063-4.541Z"/><path fill="#193C3F" d="M140.509 243.624h-7.904a1.597 1.597 0 1 0 0 3.195h7.904a1.597 1.597 0 0 0 0-3.195ZM140.509 250.855h-7.904a1.598 1.598 0 0 0 0 3.195h7.904a1.597 1.597 0 1 0 0-3.195ZM140.509 258.254h-7.904a1.599 1.599 0 0 0 0 3.195h7.904a1.597 1.597 0 1 0 0-3.195ZM140.509 296.092h-7.904a1.598 1.598 0 1 0 0 3.195h7.904a1.598 1.598 0 0 0 0-3.195ZM145.554 268.849h-12.949a1.597 1.597 0 1 0 0 3.195h12.949a1.597 1.597 0 0 0 0-3.195Z"/><path fill="#fff" d="M145.554 276.248h-12.949a1.598 1.598 0 0 0 0 3.195h12.949a1.597 1.597 0 1 0 0-3.195ZM145.554 283.479h-12.949a1.598 1.598 0 0 0 0 3.195h12.949a1.597 1.597 0 1 0 0-3.195Z"/><path stroke="#55787B" stroke-miterlimit="10" stroke-width="1.128" d="M318.344 446.936h17.152l9.418 9.585h98.545l15.135-15.303h53.14"/><path stroke="#55787B" stroke-miterlimit="10" stroke-width="1.128" d="M313.299 452.317a5.045 5.045 0 1 0 0-10.09 5.045 5.045 0 0 0 0 10.09ZM516.947 446.095a5.045 5.045 0 1 0 0-10.09 5.045 5.045 0 0 0 0 10.09Z"/><defs><filter id="a" width="578.334" height="376.535" x="0" y="126.493" color-interpolation-filters="sRGB" filterUnits="userSpaceOnUse"><feFlood flood-opacity="0" result="BackgroundImageFix"/><feColorMatrix in="SourceAlpha" result="hardAlpha" values="0 0 0 0 0 0 0 0 0 0 0 0 0 0 0 0 0 0 127 0"/><feOffset dy="9"/><feGaussianBlur stdDeviation="9"/><feComposite in2="hardAlpha" operator="out"/><feColorMatrix values="0 0 0 0 0.289552 0 0 0 0 0.554167 0 0 0 0 0.554167 0 0 0 0.13 0"/><feBlend in2="BackgroundImageFix" result="effect1_dropShadow_7_861"/><feBlend in="SourceGraphic" in2="effect1_dropShadow_7_861" result="shape"/></filter></defs></svg>