<svg width="82" height="50" viewBox="0 0 82 50" fill="none" xmlns="http://www.w3.org/2000/svg">
<path fill-rule="evenodd" clip-rule="evenodd" d="M29.6569 6.37255V5.40532e-07L17.402 0V12.0098L5.63726 12.0098V24.2647H0V30.6373H5.63726V50H12.0098V30.6373H17.402V37.7451H23.7745V18.3824H29.4118V12.0098H23.7745V6.37255H29.6569ZM12.0098 18.3824H17.402V24.2647H12.0098V18.3824Z" fill="#3CB27F"/>
<path fill-rule="evenodd" clip-rule="evenodd" d="M59.3137 10.2941H57.3529V26.2255H59.3137V10.2941ZM54.6569 14.951H52.6961V24.2647H46.8137V14.951H44.8529V24.2647V26.2255H46.8137L54.6569 26.2255V24.2647V14.951ZM76.7157 10.2941H78.6765V26.2255H76.7157V10.2941ZM43.1373 10.5392V12.5L38.7255 12.5V15.4412L43.1373 15.4412V17.402L38.7255 17.402V26.2255H36.7647V17.402H34.5588V15.4412H36.7647V12.5H36.7647V10.5392L36.7647 10.5392H38.7255H43.1373ZM69.6078 12.5V10.5392H65.1961H63.2353L63.2353 12.5L63.2353 15.4412H61.0294V17.402H63.2353V26.2255H65.1961V17.402L69.6078 17.402V15.4412L65.1961 15.4412V12.5L69.6078 12.5ZM73.7745 11.8872C73.7745 12.6317 73.171 13.2353 72.4265 13.2353C71.682 13.2353 71.0784 12.6317 71.0784 11.8872C71.0784 11.1427 71.682 10.5392 72.4265 10.5392C73.171 10.5392 73.7745 11.1427 73.7745 11.8872ZM71.3235 14.7059H73.2843V26.2255H71.3235V14.7059Z" fill="#193C3F"/>
<path d="M69.6617 28.6765C70.0678 28.6765 70.397 28.3473 70.397 27.9412C70.397 27.5351 70.0678 27.2059 69.6617 27.2059C69.2557 27.2059 68.9265 27.5351 68.9265 27.9412C68.9265 28.3473 69.2557 28.6765 69.6617 28.6765Z" fill="#193C3F"/>
<path d="M70.1519 34.3137V29.4118H69.1716V34.3137H70.1519Z" fill="#193C3F"/>
<path fill-rule="evenodd" clip-rule="evenodd" d="M46.1276 30.1321V27.2433H47.0063V34.3137H46.1276V33.4451C45.6966 34.1117 45.0603 34.445 44.2186 34.445C43.5048 34.445 42.9022 34.1891 42.4106 33.6774C41.9123 33.1589 41.6632 32.5293 41.6632 31.7886C41.6632 31.0546 41.9123 30.4284 42.4106 29.9099C42.9089 29.3914 43.5116 29.1321 44.2186 29.1321C45.0603 29.1321 45.6966 29.4655 46.1276 30.1321ZM44.3297 33.5966C44.8415 33.5966 45.2691 33.4249 45.6125 33.0815C45.9559 32.7246 46.1276 32.2936 46.1276 31.7886C46.1276 31.2768 45.9559 30.8492 45.6125 30.5058C45.2691 30.1557 44.8415 29.9806 44.3297 29.9806C43.8247 29.9806 43.4004 30.1557 43.057 30.5058C42.7136 30.8492 42.5419 31.2768 42.5419 31.7886C42.5419 32.2936 42.7136 32.7246 43.057 33.0815C43.4004 33.4249 43.8247 33.5966 44.3297 33.5966Z" fill="#193C3F"/>
<path fill-rule="evenodd" clip-rule="evenodd" d="M40.9154 32.1926H36.6833C36.7708 32.637 36.9762 32.9872 37.2994 33.2431C37.6226 33.4922 38.0266 33.6168 38.5115 33.6168C39.1781 33.6168 39.6629 33.371 39.9659 32.8795L40.7134 33.3037C40.2151 34.0646 39.4744 34.445 38.4913 34.445C37.6967 34.445 37.0435 34.1959 36.5318 33.6976C36.0335 33.1858 35.7843 32.5495 35.7843 31.7886C35.7843 31.0209 36.0301 30.388 36.5217 29.8897C37.0132 29.3847 37.6496 29.1321 38.4307 29.1321C39.1714 29.1321 39.774 29.3948 40.2387 29.92C40.71 30.4317 40.9457 31.058 40.9457 31.7987C40.9457 31.9266 40.9356 32.0579 40.9154 32.1926ZM38.4307 29.9604C37.966 29.9604 37.5755 30.0917 37.259 30.3543C36.9492 30.6169 36.7573 30.9738 36.6833 31.425H40.0569C39.9828 30.9604 39.7976 30.6001 39.5013 30.3442C39.205 30.0883 38.8482 29.9604 38.4307 29.9604Z" fill="#193C3F"/>
<path d="M55.7902 34.445C55.0293 34.445 54.3964 34.1925 53.8913 33.6875C53.3863 33.1757 53.1338 32.5428 53.1338 31.7886C53.1338 31.0344 53.3863 30.4048 53.8913 29.8998C54.3964 29.388 55.0293 29.1321 55.7902 29.1321C56.2885 29.1321 56.7363 29.2533 57.1336 29.4958C57.5309 29.7315 57.8272 30.0513 58.0225 30.4553L57.2851 30.8795C57.1572 30.6102 56.9585 30.3947 56.6892 30.2331C56.4266 30.0715 56.1269 29.9907 55.7902 29.9907C55.2852 29.9907 54.861 30.1624 54.5176 30.5058C54.1809 30.856 54.0126 31.2836 54.0126 31.7886C54.0126 32.2869 54.1809 32.7111 54.5176 33.0613C54.861 33.4047 55.2852 33.5764 55.7902 33.5764C56.1269 33.5764 56.43 33.4989 56.6993 33.3441C56.9686 33.1825 57.174 32.967 57.3154 32.6976L58.0629 33.132C57.8407 33.536 57.5275 33.8558 57.1235 34.0915C56.7195 34.3272 56.2751 34.445 55.7902 34.445Z" fill="#193C3F"/>
<path fill-rule="evenodd" clip-rule="evenodd" d="M63.0431 30.1321V29.2635H63.9218V34.3137H63.0431V33.4451C62.6121 34.1117 61.9758 34.445 61.1341 34.445C60.4203 34.445 59.8176 34.1891 59.3261 33.6774C58.8278 33.1589 58.5786 32.5293 58.5786 31.7886C58.5786 31.0546 58.8278 30.4284 59.3261 29.9099C59.8244 29.3914 60.427 29.1321 61.1341 29.1321C61.9758 29.1321 62.6121 29.4655 63.0431 30.1321ZM61.2452 33.5966C61.7569 33.5966 62.1845 33.4249 62.5279 33.0814C62.8714 32.7246 63.0431 32.2936 63.0431 31.7886C63.0431 31.2768 62.8714 30.8492 62.5279 30.5058C62.1845 30.1557 61.7569 29.9806 61.2452 29.9806C60.7401 29.9806 60.3159 30.1557 59.9725 30.5058C59.6291 30.8492 59.4574 31.2768 59.4574 31.7886C59.4574 32.2936 59.6291 32.7246 59.9725 33.0814C60.3159 33.4249 60.7401 33.5966 61.2452 33.5966Z" fill="#193C3F"/>
<path fill-rule="evenodd" clip-rule="evenodd" d="M73.4373 34.445C74.1848 34.445 74.8144 34.1891 75.3261 33.6774C75.8446 33.1589 76.1039 32.5293 76.1039 31.7886C76.1039 31.0479 75.8446 30.4183 75.3261 29.8998C74.8144 29.388 74.1848 29.1321 73.4373 29.1321C72.6899 29.1321 72.0603 29.388 71.5485 29.8998C71.0367 30.4115 70.7809 31.0411 70.7809 31.7886C70.7809 32.536 71.0367 33.1656 71.5485 33.6774C72.0603 34.1891 72.6899 34.445 73.4373 34.445ZM74.71 33.0714C74.3666 33.4148 73.9423 33.5865 73.4373 33.5865C72.939 33.5865 72.5182 33.4148 72.1747 33.0714C71.8313 32.728 71.6596 32.3003 71.6596 31.7886C71.6596 31.2768 71.8313 30.8492 72.1747 30.5058C72.5182 30.1624 72.939 29.9907 73.4373 29.9907C73.9423 29.9907 74.3666 30.1624 74.71 30.5058C75.0534 30.8492 75.2251 31.2768 75.2251 31.7886C75.2251 32.3003 75.0534 32.728 74.71 33.0714Z" fill="#193C3F"/>
<path d="M48.9776 29.4118H48.1677V34.3137H52.2172V29.4118H51.4073V33.5038H48.9776V29.4118Z" fill="#193C3F"/>
<path d="M65.6176 34.3137H68.4363V33.4559H66.4755V30.1471H68.4363V29.2892H66.4755V28.4314H65.6176V29.2892H64.7598V30.1471H65.6176V34.3137Z" fill="#193C3F"/>
<path d="M76.7696 29.4118V34.5588H77.6274V30.2696H80.201V34.5588H81.0588V29.4118H76.7696Z" fill="#193C3F"/>
</svg>
